<?xml version="1.0" encoding="UTF-8"?>
<svg id="Layer_2" data-name="Layer 2" xmlns="http://www.w3.org/2000/svg" viewBox="0 0 637.34 639.6">
  <defs>
    <style>
      .cls-1 {
        fill: none;
      }

      .cls-1, .cls-2 {
        stroke-width: 0px;
      }

      .cls-2 {
        fill: #fff;
      }
    </style>
  </defs>
  <g id="Layer_2-2" data-name="Layer 2">
    <path class="cls-1" d="m311.62,68.83c-4.11,0-7.75.21-11.36-.06-4.15-.31-5.58,1.36-5.58,5.44,0,11.83-.47,23.65-.46,35.48.01,29.66.15,59.33.31,88.99.07,12.39,2,15,13.06,19.62,1.26.53,2.44,2.59,2.64,4.08.48,3.62.42,7.31.46,10.97.05,4.1,1.98,6.1,6.12,6.16,3.16.04,6.32.37,9.48.52,2.92.14,4.08,1.58,3.92,4.52-.19,3.49.03,7-.08,10.5-.13,3.94,1.39,5.81,5.59,5.62,5.49-.25,11-.08,16.5-.1,3.39-.02,5.24,1.43,5.31,5.04.09,4.66.68,9.32.53,13.97-.14,4.53,1.43,6.31,6.09,5.98,5.14-.37,10.33-.14,15.49-.11,28.16.18,56.32.3,84.48.66,3.92.05,5.56-.98,5.24-5-.24-2.98-.04-6-.05-9,0-8.91,0-8.94,8.89-8.99,8.26-.05,16.53-.01,25.08-.01v-13.83c-.01-8.19.07-7.59,8.12-8.75,14.46-2.09,12.69,1.45,13.77-13.34.06-.83.24-1.65.31-2.48.94-11.01.94-11.22,12.36-11.24,4.95-.01,6.9-1.86,6.99-6.7.31-17.64,1.14-35.27,1.12-52.9-.03-20.82-.82-41.63-1.15-62.45-.18-11.59-.06-11.59-11.79-11.8-.33,0-.67-.06-1-.04-4.68.28-6.46-1.8-6.3-6.56.26-7.48-.14-14.99-.06-22.48.04-3.66-1.41-5.04-5.07-4.87-4.15.19-8.33.05-12.49-.19-3.35-.19-5.56-1.55-5.15-5.61.31-3.13-.23-6.34.02-9.49.36-4.44-1.01-6.37-5.85-6.09-7.14.41-14.32-.04-21.47.29-4.58.21-6.88-.93-6.4-6.04.39-4.13-.05-8.33.12-12.49.14-3.34-.92-4.77-4.53-4.73-33.45.33-66.91.57-100.36.71-3.79.02-5.59,1.4-5.58,5.19.03,5.62,0,11.24,0,17.35-7.17,0-13.61.14-20.05-.04-8.26-.23-8.87.23-8.95,8.39-.12,11.39-.13,11.66-11.23,11.26-5.13-.18-6.98,1.96-7.01,6.57-.04,5.8,0,11.61,0,18.11l-.03-.03Zm325.63,292.46c-4.73,0-9.2-.26-13.61.07-4.54.35-5.97-1.55-5.69-5.82.2-3.14-.36-6.33-.15-9.47.31-4.64-2.4-5.69-6.14-5.69-15.66-.01-31.33.1-46.99-.03-3.71-.03-5.1,1.63-5.28,4.99-.19,3.49-.4,6.98-.7,10.47-.49,5.72-1.78,6.97-7.42,7.08-5.33.1-10.66.03-16,.05-8.61.03-13.41,4.28-14.42,12.74-.88,7.36-3.74,9.79-11.09,9.83-19.49.11-38.98.4-58.47.41-4.23,0-5.66,2.06-5.8,5.72-.14,3.5-.06,7-.22,10.49-.15,3.33-1.88,5.25-5.37,5.25-16.66.01-33.32,0-49.99.05-3.17.01-4.48-1.28-4.37-4.52.17-5.11.05-10.23.05-15.87h-6.16c-16.5.01-33,.06-49.49.02-3.58,0-8.01.96-10.54-.76-3.69-2.51-6.95-6.23-6.67-11.96.42-8.62-.59-9.28-9.21-9.65-6.32-.27-12.64-.59-18.96-.77-3.38-.09-4.64-1.71-4.62-5,.03-3.83-.44-7.66-.43-11.48,0-3.18-1.25-4.43-4.48-4.4-15.33.1-30.66.09-45.99.03-4.07-.02-5.72,2.07-5.76,5.85-.04,3.5-.29,7.02-.01,10.49.34,4.29-1.24,5.91-5.62,6.01-14.34.31-14.5.44-14.32,14.59.06,5.09-1.07,7.67-6.83,7.74-2.33.03-5.79,2.26-6.69,4.37-1.51,3.51-1.96,7.75-1.81,11.64.56,14.78,1.33,29.55,2.47,44.3.42,5.51,2.81,10.41,7.38,14.15,1.38,1.13,2.15,3.64,2.26,5.58.35,5.96,2.58,9.09,8.4,10.65,1.44.39,2.94.94,4.38.87,3.68-.19,5.13,1.9,5.36,5.04.31,4.14.5,8.31.41,12.47-.08,4.2,1.5,5.96,5.89,5.9,10.33-.15,20.66.11,30.99.15,1.46,0,2.92-.29,4.53-.47v-45.37c-5.1,0-9.89-.21-14.65.07-3.93.23-5.46-1.28-5.39-5.14.13-7.33.05-14.67.08-22,.02-4.42,2.17-6.63,6.46-6.64,10.95-.03,11.02-.02,11.92-10.91.3-3.6,1.7-5.48,5.53-5.45,3.82.03,7.65-.24,11.47-.46,3.48-.21,5.03.95,4.96,4.82-.22,10.99-.06,22-.02,33,0,1.76.2,3.51.33,5.69h31.42c74.49.01,148.98.01,223.47.07,4.04,0,7.44-.14,7.3-5.55-.41-15.45-.73-30.9-1.05-46.35-.07-3.6-.01-7.2-.01-11.51,4.31,0,8.28.27,12.21-.07,4.5-.39,6.02,1.9,6.15,5.81.12,3.66.18,7.33.15,11-.02,2.74,1.24,3.93,3.94,3.89,3.83-.06,7.68.22,11.49-.07,4.09-.32,5.29,1.69,5.3,5.29,0,10.17-.01,20.33.19,30.5.06,3.24-1.07,4.51-4.3,4.47-3.32-.04-6.68.02-9.93.59-1.4.25-3.62,1.87-3.65,2.93-.29,9.41-.17,18.84-.17,28.75,10.66-.98,20.64,3.05,30.77-.58,3.28-1.17,4.56-2.8,4.63-5.96.13-5.66.43-11.32.41-16.98-.01-3.06.77-4.73,4.21-4.54,15.77.86,14.71-2.2,14.23-14.79-.44-11.57-.68-9.94,10.06-10.09,7.23-.1,7.9-.68,8.25-8.02.52-10.8,1.1-21.6,1.4-32.41.22-7.96.04-15.94.04-25.04l-.02-.06Zm-465.14-44.7c-6.18,0-11.49.02-16.8,0-4.18-.02-6.56,1.41-6.03,6.2.38,3.46-.1,7,.14,10.48.3,4.28-1.79,5.58-5.66,5.48-4.16-.1-8.33-.01-12.48.14-3.17.11-4.77,1.62-4.55,5.09.25,3.98.07,7.99.07,11.99.01,6.43.01,6.41-6.66,6.44-3.99.02-7.99.07-11.98.2-3.21.11-4.74,1.66-4.63,5.08.18,5.78.05,11.57.05,17.94-4.61,0-8.56-.03-12.51,0-6.63.05-7.36.81-7.4,7.6-.02,4.57,0,9.15,0,13.99-7.34,0-13.82.12-20.3-.05-3.71-.1-5.13,1.57-5.08,5.07.06,4.66-.16,9.34.09,13.99.21,3.99-1.45,5.32-5.29,5.18-5.49-.21-10.99-.04-16.49-.08-3.72-.02-5.56,1.97-5.67,5.49-.15,4.81-.28,9.65-.04,14.45.18,3.65-.97,5.11-4.79,4.98-7.16-.24-14.33-.1-21.49-.09-2.27,0-4.39.09-4.37,3.32.03,4.83-.12,9.66-.21,14.49-.05,2.8,1.15,4.32,4.11,4.45,6.64.3,13.27,1,19.91,1.05,17.33.14,34.66.15,51.98-.09,4.97-.07,7.06,2.03,7.22,6.64.13,3.83.48,7.69.12,11.48-.49,5.06,1.73,6.26,6.35,6.22,9.32-.1,18.64.32,27.96.46,3.92.06,6.26,1.3,5.86,5.84-.29,3.3.35,6.7-.02,9.98-.56,4.97,1.65,6.53,6.24,6.45,5.83-.11,11.66.16,17.49.17,17.99.02,35.99,0,53.98-.02,6.01,0,9.01-3.08,9.02-9.23,0-2.67-.2-5.35.04-7.99.36-4.03-1.63-5.39-5.28-5.33-3,.05-6.01-.14-8.99.06-3.94.25-5.41-1.49-5.23-5.32.2-4.32.01-8.66.13-12.99.09-3.14-1.22-4.63-4.42-4.55-3.16.09-6.34-.17-9.49.05-4.03.29-5.35-1.65-5.24-5.35.12-3.83.02-7.66.05-11.5.05-7.46-3.7-11.24-11.25-11.35-5.88-.09-7.02-1.18-7.02-7.03-.01-16,.06-31.99.03-47.99-.02-11.65-.06-11.7,11.78-11.63,4.33.03,6.5-1.94,6.57-6.26.06-3.5.21-7,.17-10.5-.06-4.45,1.5-7,6.48-6.4,2.14.26,4.34-.07,6.49.09,3.93.3,5.95-1.19,5.9-5.34-.06-4.49.21-8.99.19-13.49-.01-3.08,1.09-4.62,4.42-4.44,3.49.19,7,.07,10.49,0,4.97-.11,6.87-2.08,6.83-6.95-.03-4.17.02-8.33-.09-12.5-.07-2.7.91-3.87,3.78-3.85,19.16.14,38.32.19,57.48.19,3.75,0,5.49,1.62,5.56,5.36.08,4.33.26,8.65.54,12.97.24,3.7,1.97,5.67,6.07,5.46,6.81-.35,13.64-.44,20.46-.49,11.76-.08,11.76-.04,13.06,11.33.83,7.29,1.53,8.1,8.98,8.43,12.12.53,24.25.9,36.38,1.2,6.99.17,13.99.1,20.99.09,1.59,0,3.18-.18,4.91-.29v-23.85c-2.07,0-3.85.01-5.63,0-7.5-.07-15-.31-22.49-.15-4.51.1-6.18-1.47-6.05-6.13.15-5.22-.63-10.47-1.07-16.48-10.39,0-20.17-.03-29.96,0-9.46.03-9.46.06-10.02-9.14-.1-1.66-.36-3.33-.29-4.98.16-3.94-1.57-5.8-5.58-5.93-8.31-.27-16.61-.75-24.91-1.1-11.43-.48-22.86-.92-35.49-1.42,0-4.93-.05-9.21.02-13.47.06-3.47-1.45-5.33-5.01-5.35-14.99-.09-29.99-.17-44.98-.31-3.06-.03-4.09,1.41-3.96,4.32.15,3.33-.27,6.7.09,9.99.52,4.78-1.6,6.21-6,5.97-3.99-.22-8,.11-11.99-.07-4.09-.18-5.73,1.56-5.6,5.62.18,5.63.04,11.27.04,17.99l-.03.02Zm129.08-54.77l.82-1.49c-1.57-1.16-3.05-3.14-4.74-3.33-7.67-.86-8.19-6.09-8.54-12.08-.11-1.83-2.01-4.89-3.4-5.08-5.5-.75-5.87-4.54-6.26-8.61-.21-2.15-.25-4.32-.55-6.46-.54-3.86-2.64-6.09-6.76-5.57-6.93.88-7.59-1.91-7.56-7.85.17-43.65.38-87.29.59-130.94.03-6.89,1.52-8.64,8.25-8.98,3.98-.21,5.69-2.09,5.75-5.93.08-4.49.34-8.98.41-13.48.1-6.59.16-6.61,6.68-6.93,12.14-.59,11.2,2.15,12.74-13.07.02-.17.01-.33.01-.5.09-5.46,2.96-8.17,8.61-8.14.33,0,.67-.03,1,0,4.3.61,6.79-1.14,8.01-5.4,2-6.98,6.88-11,13.86-12.87,1.33-.36,2.24-2.27,3.35-3.46-1.38-.57-2.76-1.65-4.13-1.63-15.81.22-31.62.69-47.43.91-4.42.06-5.75,2.03-5.56,6.19.25,5.61.06,11.23.06,16.92-5.73.67-10.8,1.52-15.91,1.77-3.35.16-4.79,1.2-4.8,4.69,0,4.28,1.07,10.27-1.22,12.39-2.55,2.36-8.36,1.46-12.75,1.51-3.79.04-5.54,1.49-5.51,5.3.04,5.66-.07,11.33-.08,16.99-.01,8.23-4.09,12.55-12.23,12.98-3.92.21-6.6,1.59-6.62,6.25-.03,6.98-.61,13.96-.62,20.94-.07,31.33-.05,62.65-.03,93.98,0,9.15.14,9.22,9.02,9.58,1.65.07,3.29.51,4.94.57,3.81.14,5.23,2.39,5.36,5.84.15,4.16.27,8.32.4,12.48.29,9.06.67,9.47,9.41,9.98,6.65.39,9.99,3.82,10.03,10.3,0,1.5.19,3.02.02,4.5-.54,4.74,2,6.03,6.2,6.23,6.3.3,12.58,1.2,18.88,1.45,6.76.26,13.54.06,20.31.06v-.02Zm260.8,353.24c.26-3.75.4-7.03.73-10.29.6-6-1.73-8.76-7.6-8.78-2.33,0-4.66.07-7,.09-6.27.05-8.01-1.85-7.54-8.02.33-4.29.54-8.59.73-12.89.38-8.65.82-17.29,1.05-25.95.32-12.29.75-24.59.59-36.87-.07-5.64-2.21-6.98-7.91-7.06-2.66-.03-5.33-.16-7.99-.25-7.7-.28-7.67-.28-7.85,7.29-.34,14.7,1.83,12.73-12.69,12.92-.5,0-1,.04-1.5,0-4.28-.32-6.1,2-6.21,5.96-.08,2.99-.12,6.01.1,8.99.25,3.59-.99,5.22-4.81,4.99-4.15-.25-8.33-.07-12.49-.08-9.22-.01-9.35.1-9.39,9.57-.1,25.98-.19,51.97-.27,77.95-.01,4.57,2.33,6.86,7.02,6.87,33.65.01,67.3.02,100.96,0,1.42,0,2.84-.25,4.15-.38,0-5.96.03-11.43,0-16.9-.03-4.14-2.2-5.82-6.3-5.94-5.09-.14-10.16-.77-15.76-1.22h-.02Zm-231.04-68.77c0-5.3.12-9.78-.03-14.25-.14-4.25-2.07-6.79-6.78-6.77-5.83.02-11.65-.35-17.48-.38-3.7-.02-5.47-1.36-5.26-5.37.27-5.1.07-10.23.07-15.32h-20.02v5.41c.01,21.97.05,43.93,0,65.9,0,4.3,1.29,10.39-.95,12.42-2.55,2.32-8.39,1.03-12.8,1.3-.33.02-.67,0-1,0-5.37.13-7.01,1.65-7.42,7.16-.36,4.81-.86,9.63-.77,14.44.07,3.82-1.39,4.97-5,4.76-3.65-.21-7.37-.25-10.97.28-1.45.21-3.73,2.05-3.8,3.26-.37,6.58-.18,13.2-.18,19.81,1.19.22,1.83.44,2.47.44,30.82.06,61.65.06,92.47.2,4.01.02,4.75-2.15,4.69-5.35-.13-7.99-.31-15.99-.37-23.98-.06-8.59-.01-17.19-.01-26.16,5.1,0,9.27.28,13.36-.14,1.53-.16,4.12-1.92,4.13-2.98.09-10.46-.3-20.93-.46-31.4-.05-3.1-1.92-3.35-4.32-3.33-6.3.06-12.6.02-19.58.02v.03Zm63.38-162.19c14.09,2.21,27.95.45,41.79-1.1.92-.1,2.2-2.29,2.29-3.58.33-4.48.31-8.99.22-13.48-.05-2.88.87-4.24,4-4.26,9.82-.05,19.65-.3,29.47-.51,10.29-.22,20.59-.58,30.88-.69,3.3-.03,3.85-1.72,3.74-4.42-.18-4.33,0-8.68-.42-12.98-.41-4.15,1.33-5.15,5.13-5.05,7.99.21,15.99.07,23.99.03,4.03-.02,5.94-2,6.24-6.12.36-4.92,1.22-9.81,1.9-14.95,1.52-.16,2.81-.42,4.1-.41,17.83.11,35.65.15,53.47.48,3.81.07,5.53-.68,5.23-4.89-.34-4.81-.28-9.67,0-14.49.2-3.6-1.18-4.55-4.6-4.5-29.95.48-59.91.83-89.87,1.25-.78.01-1.55.36-2.71.64,0,3.26-.12,6.41.02,9.55.47,10.13-.49,11.55-12.36,10.84-.33-.02-.66-.17-.98-.17h-25.11c0,1.98-.13,3.96.04,5.9.15,1.63.6,3.25,1.01,4.85,1.7,6.6-1.33,10.94-7.91,11.19-3.66.14-7.33.21-10.99.22-8.95.03-13.43,4.59-13.42,13.69.01,11.93.85,10.62-10.78,10.7-10.5.07-20.99.23-31.48.48-1.99.05-4.67-.27-4.36,3.24.53,6.1.98,12.21,1.48,18.55h-.01Z"/>
    <path class="cls-2" d="m311.62,68.83c0-6.5-.03-12.3,0-18.11.03-4.61,1.87-6.75,7.01-6.57,11.1.4,11.11.14,11.23-11.26.09-8.17.69-8.63,8.95-8.39,6.43.18,12.88.04,20.05.04,0-6.1.02-11.73,0-17.35-.02-3.79,1.78-5.17,5.58-5.19,33.45-.14,66.91-.38,100.36-.71,3.6-.04,4.67,1.39,4.53,4.73-.18,4.16.27,8.36-.12,12.49-.48,5.11,1.82,6.25,6.4,6.04,7.15-.33,14.33.13,21.47-.29,4.84-.28,6.21,1.65,5.85,6.09-.25,3.14.29,6.35-.02,9.49-.41,4.06,1.8,5.42,5.15,5.61,4.15.24,8.34.38,12.49.19,3.67-.17,5.11,1.22,5.07,4.87-.08,7.49.32,15,.06,22.48-.16,4.76,1.62,6.84,6.3,6.56.33-.02.67.04,1,.04,11.74.21,11.61.21,11.79,11.8.33,20.82,1.12,41.63,1.15,62.45.03,17.63-.81,35.27-1.12,52.9-.08,4.85-2.03,6.69-6.99,6.7-11.42.02-11.42.23-12.36,11.24-.07.83-.25,1.65-.31,2.48-1.08,14.79.69,11.24-13.77,13.34-8.05,1.17-8.13.56-8.12,8.75v13.83c-8.55,0-16.81-.04-25.08.01-8.9.05-8.89.09-8.89,8.99,0,3-.19,6.02.05,9,.32,4.02-1.31,5.05-5.24,5-28.16-.35-56.32-.48-84.48-.66-5.17-.03-10.35-.26-15.49.11-4.67.34-6.23-1.45-6.09-5.98.14-4.64-.45-9.31-.53-13.97-.07-3.61-1.91-5.06-5.31-5.04-5.5.02-11.01-.14-16.5.1-4.2.19-5.72-1.68-5.59-5.62.12-3.5-.1-7.01.08-10.5.16-2.94-1-4.38-3.92-4.52-3.16-.15-6.32-.48-9.48-.52-4.14-.06-6.08-2.06-6.12-6.16-.04-3.66.02-7.36-.46-10.97-.2-1.49-1.37-3.55-2.64-4.08-11.06-4.61-12.99-7.23-13.06-19.62-.16-29.66-.29-59.33-.31-88.99,0-11.83.46-23.65.46-35.48,0-4.09,1.43-5.75,5.58-5.44,3.61.27,7.25.06,11.36.06l.03.03Zm128.52,32.56c0,5.27-.27,10.08.15,14.84.14,1.62,1.96,4.4,3.09,4.44,9.47.32,18.96.32,28.42-.1,1.65-.07,4.43-2.48,4.55-3.99.52-6.25.22-12.56.22-17.78-5.4-2.09-11.43-2.63-13.95-5.89-2.7-3.5-2.1-9.55-3.04-15.07-5.87,0-12-.08-18.13.04-2.98.06-4.14-1.04-4.12-4.1.02-4.99-.13-10.01-.7-14.96-.18-1.59-1.9-4.31-2.88-4.3-8.02.1-16.03.74-24.23,1.22v12.41c.01,6.53-3.15,9.77-9.48,9.72h-3.5c-13.26.04-13.39.03-13.72,13.42-.1,4.12-1.94,5.71-5.67,5.92-3.43.2-6.87.39-10.8.61v36.38c0,2.73,1.28,3.86,4.01,3.81,3.83-.08,7.66.14,11.49.08,2.92-.05,4.21.99,4.03,4.12-.23,3.99.14,8.01-.08,11.99-.18,3.31,1.12,4.37,4.33,4.32,6.32-.1,12.64.18,18.96.19,2.75,0,4.41.93,4.49,3.92.04,1.49.41,2.98.4,4.47-.04,4.27,2.08,5.95,6.23,5.77,3.32-.15,6.79-.49,9.95.26,1.92.45,4.67,2.67,4.84,4.33.6,5.72.23,11.54.23,18-6.99.28-13.61.63-20.24.81-17.22.45-15.44-2-15-14.17.12-3.27-1.07-4.44-4.35-4.23-9.13.57-18.27.98-27.42,1.34-2.71.11-3.85,1.15-3.79,3.95.15,6.5.13,13,.09,19.5-.02,3.55,1.67,4.99,5.16,5.14,12.57.56,12.76.62,12.68,12.89-.03,4.21,1.67,5.14,5.31,5.04,5.66-.15,11.33.04,17-.05,3.3-.05,4.88,1.02,4.58,4.67-.29,3.47.21,7,.08,10.49-.11,2.83,1.1,3.92,3.78,3.9,6.83-.04,13.67-.04,20.5,0,2.93.02,4.27-1.38,4.23-4.28-.04-3-.04-6,0-9,.05-3.47,1.75-5.27,5.33-5,2.97.22,5.96.31,8.91.74,5.66.83,7.25-.43,7.23-6.08,0-3,.04-6-.05-9-.09-2.79.83-4.42,3.93-4.48,2.96-.06,6.01-.07,8.84-.82,1.66-.44,4.21-2.23,4.24-3.46.31-12.97.19-25.95.19-39.25-2.59-.41-5.23-.17-7.04-1.28-2.43-1.49-5.33-3.69-6.07-6.18-2.45-8.17-2.15-8.31-10.78-7.52-.99.09-1.99.28-2.98.27-6.1-.06-7.17-1.12-7.27-7.17-.04-2.33-.24-4.69-.01-6.99.35-3.43-1.19-4.31-4.34-4.26-8.5.15-17-.06-25.49.13-2.9.07-4.35-.52-4.29-3.74.14-7.16.07-14.33.05-21.5-.01-2.75.92-4.5,4-4.5,8.98.02,17.96,0,27.9,0v.02Z"/>
    <path class="cls-2" d="m637.25,361.28c0,9.11.18,17.08-.04,25.04-.3,10.81-.88,21.61-1.4,32.41-.35,7.34-1.03,7.92-8.25,8.02-10.74.16-10.5-1.47-10.06,10.09.48,12.59,1.55,15.65-14.23,14.79-3.44-.19-4.22,1.49-4.21,4.54.02,5.66-.28,11.32-.41,16.98-.07,3.16-1.36,4.79-4.63,5.96-10.13,3.63-20.1-.4-30.77.58,0-9.91-.12-19.33.17-28.75.03-1.06,2.25-2.68,3.65-2.93,3.25-.57,6.62-.63,9.93-.59,3.23.04,4.36-1.23,4.3-4.47-.2-10.16-.18-20.33-.19-30.5,0-3.6-1.21-5.6-5.3-5.29-3.81.29-7.66.02-11.49.07-2.7.04-3.97-1.15-3.94-3.89.03-3.67-.03-7.33-.15-11-.13-3.91-1.65-6.19-6.15-5.81-3.92.34-7.9.07-12.21.07,0,4.32-.06,7.92.01,11.51.32,15.45.64,30.9,1.05,46.35.14,5.41-3.26,5.55-7.3,5.55-74.49-.06-148.98-.06-223.47-.07h-31.42c-.13-2.18-.33-3.93-.33-5.69-.05-11-.2-22,.02-33,.08-3.87-1.48-5.02-4.96-4.82-3.82.23-7.65.5-11.47.46-3.83-.03-5.23,1.85-5.53,5.45-.9,10.89-.97,10.89-11.92,10.91-4.28.01-6.43,2.23-6.46,6.64-.03,7.33.05,14.67-.08,22-.07,3.85,1.46,5.37,5.39,5.14,4.76-.28,9.54-.07,14.65-.07v45.37c-1.61.17-3.07.47-4.53.47-10.33-.04-20.66-.3-30.99-.15-4.39.06-5.97-1.69-5.89-5.9.08-4.15-.1-8.32-.41-12.47-.24-3.14-1.68-5.23-5.36-5.04-1.44.07-2.94-.48-4.38-.87-5.82-1.56-8.05-4.69-8.4-10.65-.11-1.93-.88-4.45-2.26-5.58-4.58-3.74-6.96-8.64-7.38-14.15-1.14-14.74-1.91-29.52-2.47-44.3-.15-3.89.31-8.13,1.81-11.64.9-2.11,4.36-4.34,6.69-4.37,5.76-.07,6.9-2.65,6.83-7.74-.18-14.15-.01-14.28,14.32-14.59,4.38-.09,5.96-1.71,5.62-6.01-.28-3.48-.03-6.99.01-10.49.04-3.79,1.69-5.87,5.76-5.85,15.33.06,30.66.07,45.99-.03,3.23-.02,4.49,1.22,4.48,4.4-.01,3.83.46,7.66.43,11.48-.02,3.29,1.24,4.91,4.62,5,6.32.18,12.64.5,18.96.77,8.63.37,9.63,1.03,9.21,9.65-.28,5.73,2.98,9.44,6.67,11.96,2.52,1.72,6.96.75,10.54.76,16.5.04,33,0,49.49-.02h6.16c0,5.64.13,10.76-.05,15.87-.11,3.23,1.2,4.53,4.37,4.52,16.66-.06,33.32-.04,49.99-.05,3.48,0,5.21-1.92,5.37-5.25.16-3.49.08-7,.22-10.49.15-3.65,1.58-5.72,5.8-5.72,19.49,0,38.98-.3,58.47-.41,7.35-.04,10.21-2.47,11.09-9.83,1.01-8.45,5.81-12.7,14.42-12.74,5.33-.02,10.67.04,16-.05,5.65-.1,6.93-1.36,7.42-7.08.3-3.48.51-6.97.7-10.47.19-3.37,1.58-5.02,5.28-4.99,15.66.13,31.33.02,46.99.03,3.74,0,6.45,1.05,6.14,5.69-.21,3.14.35,6.33.15,9.47-.28,4.26,1.15,6.16,5.69,5.82,4.42-.34,8.88-.07,13.61-.07l.02.06Z"/>
    <path class="cls-2" d="m172.11,316.59c0-6.71.13-12.36-.04-17.99-.13-4.06,1.51-5.8,5.6-5.62,3.99.18,8-.15,11.99.07,4.4.24,6.52-1.19,6-5.97-.36-3.29.06-6.66-.09-9.99-.13-2.91.91-4.34,3.96-4.32,14.99.14,29.99.22,44.98.31,3.57.02,5.07,1.88,5.01,5.35-.07,4.27-.02,8.54-.02,13.47,12.62.5,24.06.94,35.49,1.42,8.31.35,16.61.84,24.91,1.1,4.01.13,5.74,1.98,5.58,5.93-.07,1.65.19,3.32.29,4.98.56,9.2.56,9.17,10.02,9.14,9.78-.03,19.57,0,29.96,0,.43,6.01,1.22,11.26,1.07,16.48-.13,4.66,1.54,6.23,6.05,6.13,7.49-.16,14.99.08,22.49.15,1.78.02,3.56,0,5.63,0v23.85c-1.73.11-3.32.29-4.91.29-7,0-14,.08-20.99-.09-12.13-.3-24.26-.67-36.38-1.2-7.45-.32-8.14-1.13-8.98-8.43-1.3-11.37-1.3-11.42-13.06-11.33-6.82.05-13.65.14-20.46.49-4.09.21-5.83-1.75-6.07-5.46-.28-4.32-.46-8.65-.54-12.97-.07-3.74-1.81-5.36-5.56-5.36-19.16,0-38.32-.05-57.48-.19-2.87-.02-3.85,1.15-3.78,3.85.11,4.16.05,8.33.09,12.5.04,4.86-1.86,6.84-6.83,6.95-3.5.07-7.01.19-10.49,0-3.33-.18-4.44,1.35-4.42,4.44.02,4.5-.25,8.99-.19,13.49.06,4.16-1.97,5.65-5.9,5.34-2.15-.17-4.35.16-6.49-.09-4.97-.6-6.53,1.95-6.48,6.4.04,3.5-.11,7-.17,10.5-.07,4.31-2.24,6.28-6.57,6.26-11.84-.07-11.8-.03-11.78,11.63.03,16-.04,31.99-.03,47.99,0,5.86,1.15,6.95,7.02,7.03,7.56.11,11.31,3.9,11.25,11.35-.03,3.83.07,7.67-.05,11.5-.11,3.7,1.21,5.64,5.24,5.35,3.15-.22,6.33.03,9.49-.05,3.2-.09,4.51,1.41,4.42,4.55-.12,4.33.07,8.67-.13,12.99-.18,3.83,1.29,5.57,5.23,5.32,2.99-.19,6,0,8.99-.06,3.65-.06,5.64,1.3,5.28,5.33-.23,2.65-.03,5.33-.04,7.99,0,6.15-3.01,9.22-9.02,9.23-17.99,0-35.99.04-53.98.02-5.83,0-11.66-.28-17.49-.17-4.59.09-6.8-1.47-6.24-6.45.37-3.29-.27-6.68.02-9.98.4-4.55-1.94-5.78-5.86-5.84-9.32-.14-18.64-.56-27.96-.46-4.62.05-6.84-1.15-6.35-6.22.36-3.79,0-7.66-.12-11.48-.16-4.61-2.25-6.71-7.22-6.64-17.32.24-34.66.23-51.98.09-6.64-.05-13.27-.75-19.91-1.05-2.96-.13-4.16-1.65-4.11-4.45.09-4.83.24-9.66.21-14.49-.02-3.23,2.1-3.32,4.37-3.32,7.16,0,14.33-.15,21.49.09,3.82.13,4.97-1.32,4.79-4.98-.24-4.81-.11-9.64.04-14.45.11-3.53,1.96-5.51,5.67-5.49,5.5.03,11-.14,16.49.08,3.84.15,5.5-1.19,5.29-5.18-.24-4.65-.02-9.33-.09-13.99-.05-3.5,1.37-5.17,5.08-5.07,6.48.17,12.96.05,20.3.05,0-4.84-.02-9.41,0-13.99.03-6.79.77-7.55,7.4-7.6,3.95-.03,7.9,0,12.51,0,0-6.37.13-12.16-.05-17.94-.1-3.41,1.42-4.97,4.63-5.08,3.99-.13,7.99-.19,11.98-.2,6.68-.03,6.68,0,6.66-6.44,0-4,.18-8.01-.07-11.99-.22-3.47,1.38-4.98,4.55-5.09,4.16-.15,8.32-.24,12.48-.14,3.88.09,5.97-1.21,5.66-5.48-.24-3.48.24-7.03-.14-10.48-.53-4.79,1.85-6.22,6.03-6.2,5.31.03,10.62,0,16.8,0l.03-.02Z"/>
    <path class="cls-2" d="m301.18,261.81c-6.77,0-13.55.2-20.31-.06-6.3-.24-12.58-1.14-18.88-1.45-4.2-.2-6.73-1.49-6.2-6.23.17-1.48,0-3-.02-4.5-.04-6.48-3.38-9.91-10.03-10.3-8.74-.51-9.12-.92-9.41-9.98-.13-4.16-.25-8.32-.4-12.48-.13-3.45-1.55-5.7-5.36-5.84-1.65-.06-3.29-.5-4.94-.57-8.88-.36-9.02-.43-9.02-9.58-.02-31.33-.05-62.65.03-93.98.02-6.98.59-13.96.62-20.94.02-4.65,2.7-6.04,6.62-6.25,8.14-.44,12.22-4.77,12.23-12.98,0-5.66.12-11.33.08-16.99-.03-3.81,1.72-5.26,5.51-5.3,4.39-.05,10.2.85,12.75-1.51,2.29-2.12,1.22-8.1,1.22-12.39,0-3.49,1.45-4.52,4.8-4.69,5.1-.25,10.17-1.1,15.91-1.77,0-5.69.19-11.31-.06-16.92-.19-4.16,1.14-6.13,5.56-6.19,15.81-.21,31.62-.68,47.43-.91,1.37-.02,2.76,1.06,4.13,1.63-1.1,1.19-2.02,3.1-3.35,3.46-6.98,1.87-11.86,5.89-13.86,12.87-1.22,4.26-3.71,6-8.01,5.4-.33-.05-.67,0-1,0-5.65-.03-8.52,2.68-8.61,8.14,0,.17,0,.33-.01.5-1.54,15.21-.6,12.48-12.74,13.07-6.52.32-6.59.33-6.68,6.93-.07,4.49-.33,8.98-.41,13.48-.07,3.84-1.78,5.72-5.75,5.93-6.73.35-8.22,2.09-8.25,8.98-.21,43.65-.42,87.29-.59,130.94-.02,5.94.64,8.73,7.56,7.85,4.12-.52,6.22,1.7,6.76,5.57.3,2.14.34,4.31.55,6.46.39,4.07.76,7.86,6.26,8.61,1.39.19,3.3,3.25,3.4,5.08.35,5.99.87,11.22,8.54,12.08,1.68.19,3.16,2.17,4.74,3.33l-.82,1.49v.02Z"/>
    <path class="cls-2" d="m561.99,615.05c5.6.46,10.68,1.08,15.76,1.22,4.11.12,6.27,1.8,6.3,5.94.04,5.47,0,10.94,0,16.9-1.3.12-2.72.38-4.15.38-33.65.02-67.3,0-100.96,0-4.68,0-7.02-2.29-7.02-6.87.08-25.98.17-51.97.27-77.95.04-9.46.17-9.58,9.39-9.57,4.16,0,8.34-.18,12.49.08,3.82.23,5.06-1.4,4.81-4.99-.21-2.98-.17-5.99-.1-8.99.1-3.96,1.93-6.27,6.21-5.96.5.04,1,0,1.5,0,14.52-.19,12.35,1.78,12.69-12.92.17-7.58.15-7.57,7.85-7.29,2.66.1,5.32.22,7.99.25,5.7.07,7.84,1.41,7.91,7.06.16,12.29-.27,24.58-.59,36.87-.23,8.65-.67,17.3-1.05,25.95-.19,4.3-.4,8.6-.73,12.89-.47,6.17,1.27,8.07,7.54,8.02,2.33-.02,4.66-.09,7-.09,5.87.02,8.2,2.78,7.6,8.78-.33,3.26-.47,6.54-.73,10.29h.02Z"/>
    <path class="cls-2" d="m330.94,546.28c6.98,0,13.28.04,19.58-.02,2.4-.02,4.27.23,4.32,3.33.16,10.47.55,20.93.46,31.4,0,1.05-2.61,2.82-4.13,2.98-4.09.42-8.26.14-13.36.14,0,8.97-.05,17.56.01,26.16.06,7.99.24,15.99.37,23.98.05,3.2-.68,5.37-4.69,5.35-30.82-.14-61.65-.14-92.47-.2-.64,0-1.28-.22-2.47-.44,0-6.62-.2-13.23.18-19.81.07-1.2,2.35-3.05,3.8-3.26,3.6-.52,7.32-.49,10.97-.28,3.62.21,5.08-.94,5-4.76-.09-4.81.42-9.63.77-14.44.41-5.51,2.05-7.03,7.42-7.16.33,0,.67.02,1,0,4.41-.27,10.25,1.02,12.8-1.3,2.24-2.03.94-8.12.95-12.42.04-21.97,0-43.93,0-65.9v-5.41h20.02c0,5.09.21,10.22-.07,15.32-.21,4.01,1.56,5.35,5.26,5.37,5.83.04,11.66.41,17.48.38,4.71-.02,6.64,2.52,6.78,6.77.15,4.47.03,8.95.03,14.25v-.03Z"/>
    <path class="cls-2" d="m394.33,384.09c-.5-6.34-.95-12.45-1.48-18.55-.31-3.52,2.37-3.19,4.36-3.24,10.49-.26,20.99-.41,31.48-.48,11.63-.08,10.79,1.23,10.78-10.7,0-9.11,4.47-13.67,13.42-13.69,3.66-.01,7.33-.08,10.99-.22,6.58-.25,9.61-4.6,7.91-11.19-.41-1.6-.86-3.21-1.01-4.85-.17-1.95-.04-3.92-.04-5.9h25.11c.33,0,.65.15.98.17,11.87.71,12.83-.71,12.36-10.84-.14-3.14-.02-6.3-.02-9.55,1.16-.28,1.94-.63,2.71-.64,29.96-.42,59.91-.76,89.87-1.25,3.42-.06,4.8.9,4.6,4.5-.27,4.82-.33,9.68,0,14.49.3,4.2-1.43,4.96-5.23,4.89-17.82-.32-35.65-.37-53.47-.48-1.29,0-2.58.25-4.1.41-.68,5.14-1.54,10.03-1.9,14.95-.3,4.12-2.21,6.11-6.24,6.12-8,.04-16,.18-23.99-.03-3.8-.1-5.54.9-5.13,5.05.43,4.3.24,8.65.42,12.98.11,2.7-.45,4.39-3.74,4.42-10.29.11-20.59.47-30.88.69-9.82.21-19.65.46-29.47.51-3.13.02-4.05,1.38-4,4.26.08,4.49.11,9-.22,13.48-.09,1.29-1.37,3.48-2.29,3.58-13.84,1.55-27.7,3.32-41.79,1.1h.01Z"/>
    <path class="cls-1" d="m440.14,101.39c-9.94,0-18.92.01-27.9,0-3.08,0-4.01,1.75-4,4.5.03,7.17.09,14.33-.05,21.5-.06,3.22,1.38,3.81,4.29,3.74,8.49-.19,17,.02,25.49-.13,3.16-.05,4.69.83,4.34,4.26-.23,2.31-.03,4.66.01,6.99.1,6.05,1.17,7.11,7.27,7.17.99,0,1.99-.18,2.98-.27,8.63-.78,8.33-.65,10.78,7.52.74,2.48,3.64,4.69,6.07,6.18,1.81,1.11,4.45.87,7.04,1.28,0,13.3.12,26.28-.19,39.25-.03,1.23-2.57,3.02-4.24,3.46-2.82.74-5.88.76-8.84.82-3.1.07-4.02,1.69-3.93,4.48.09,3,.04,6,.05,9,.02,5.66-1.57,6.91-7.23,6.08-2.94-.43-5.93-.52-8.91-.74-3.57-.26-5.28,1.53-5.33,5-.05,3-.05,6,0,9,.04,2.9-1.3,4.29-4.23,4.28-6.83-.04-13.67-.03-20.5,0-2.69.01-3.89-1.08-3.78-3.9.13-3.49-.36-7.02-.08-10.49.3-3.65-1.28-4.72-4.58-4.67-5.66.09-11.34-.1-17,.05-3.65.1-5.34-.83-5.31-5.04.09-12.28-.11-12.33-12.68-12.89-3.48-.15-5.18-1.59-5.16-5.14.04-6.5.06-13-.09-19.5-.06-2.8,1.08-3.84,3.79-3.95,9.14-.36,18.29-.77,27.42-1.34,3.28-.21,4.47.97,4.35,4.23-.44,12.16-2.21,14.62,15,14.17,6.62-.17,13.24-.52,20.24-.81,0-6.46.37-12.28-.23-18-.17-1.66-2.92-3.88-4.84-4.33-3.16-.75-6.63-.4-9.95-.26-4.15.18-6.27-1.5-6.23-5.77.01-1.49-.36-2.98-.4-4.47-.08-2.99-1.74-3.92-4.49-3.92-6.32-.01-12.64-.29-18.96-.19-3.21.05-4.51-1-4.33-4.32.22-3.99-.16-8.01.08-11.99.18-3.13-1.11-4.17-4.03-4.12-3.83.06-7.66-.16-11.49-.08-2.73.06-4.01-1.08-4.01-3.81.02-11.98,0-23.96,0-36.38,3.94-.22,7.37-.42,10.8-.61,3.73-.21,5.57-1.81,5.67-5.92.32-13.38.46-13.38,13.72-13.42,1.17,0,2.33-.02,3.5,0,6.33.05,9.49-3.19,9.48-9.72v-12.41c8.2-.48,16.21-1.11,24.23-1.22.98,0,2.7,2.71,2.88,4.3.56,4.95.72,9.97.7,14.96-.01,3.06,1.14,4.16,4.12,4.1,6.13-.12,12.26-.04,18.13-.04.94,5.51,1.08,17.27,1.08,17.27l15.91,3.69c0,5.22.3,11.53-.22,17.78-.12,1.51-2.91,3.92-4.55,3.99-9.46.42-18.95.42-28.42.1-1.13-.04-2.95-2.81-3.09-4.44-.42-4.75-.15-9.57-.15-14.84v-.02Z"/>
  </g>
</svg>